PathFileType	4	(X/Y/Z)	OpenSim_Sub09_CSBaseline_Gyro.trc
DataRate	CameraRate	NumFrames	NumMarkers	Units	OrigDataRate	OrigDataStartFrame	OrigNumFrames
100	100	37	8	m	100	731	5840
Frame#	Time	torso_imu_offset_imu	pelvis_imu_offset_imu	tibia_r_imu_offset_imu	femur_r_imu_offset_imu	tibia_l_imu_offset_imu	femur_l_imu_offset_imu	toes_r_imu_offset_imu	toes_l_imu_offset_imu
				X1	Y1	Z1	X2	Y2	Z2	X3	Y3	Z3	X4	Y4	Z4	X5	Y5	Z5	X6	Y6	Z6	X7	Y7	Z7	X8		Y8	Z8	

731	7.30000000	-0.32477175	0.42875785	-0.12057322	-0.77197663	-0.24695507	-0.12351625	-0.45005048	0.05478907	-2.15694589	-1.01634837	0.73095361	0.28912208	1.60167219	-1.53490964	0.49770589	-0.14665350	-1.02441516	0.56669525	-0.18080410	-2.43055307	-0.63696908	-0.65335838	-2.76474572	0.84189761
732	7.31000000	-0.36957136	0.42970217	-0.10674844	-0.73062421	-0.16118190	-0.15410165	-0.43667827	-0.06655690	-2.20556132	-0.99167871	0.80685572	0.38864463	1.97538900	-1.39454918	0.66062514	0.20108730	-1.15272682	0.60491022	-0.22404600	-2.72987127	-0.76223040	-0.24307448	-2.92954700	0.66927111
733	7.32000000	-0.40931886	0.41928813	-0.10729818	-0.60209925	-0.07188455	-0.21522486	-0.45650113	-0.12231775	-2.28879977	-0.92863227	0.91280610	0.49450919	1.03206597	-0.94166955	1.12982431	0.33330331	-1.03447921	0.73460593	-0.23857546	-3.06370773	-0.86084539	-0.13005365	-2.46633686	0.63266492
734	7.33000000	-0.42673611	0.40431167	-0.09328005	-0.43647962	-0.00432522	-0.28245944	-0.43441394	-0.18034213	-2.31358388	-0.84242523	1.03630762	0.60816835	-0.05349862	-0.48652153	1.46870953	0.38520830	-0.60892426	0.70803451	-0.23708555	-3.44370912	-1.00562610	0.03787766	-2.08596452	0.57109551
735	7.34000000	-0.41924286	0.37310549	-0.08555688	-0.25818599	0.03021046	-0.32788575	-0.46959029	-0.26232942	-2.30762219	-0.78162065	1.13727358	0.73387057	-0.88121156	-0.22143906	1.57239361	0.70203651	-0.45474487	0.36629859	-0.19216497	-3.86594748	-1.21419236	0.27571025	-1.97924054	0.35944689
736	7.35000000	-0.38754569	0.32645388	-0.09449033	-0.06253350	0.02668615	-0.32321530	-0.57044348	-0.34516436	-2.34023291	-0.77341023	1.20268324	0.87128211	-1.37765744	-0.08870805	1.55605867	0.90538961	-0.51650993	0.21023464	-0.18738026	-4.28873295	-1.50450778	0.41288694	-1.92507817	0.09990496
737	7.36000000	-0.35846311	0.27486618	-0.10632106	0.08170979	0.00921362	-0.22120875	-0.70115295	-0.45899457	-2.36235973	-0.81046026	1.26546575	1.02134267	-1.70497535	-0.01548418	1.48756535	0.65896444	-0.44385698	0.25856300	-0.17245532	-4.78909688	-1.78737005	-0.02602556	-1.30220069	0.07447523
738	7.37000000	-0.31698525	0.22687033	-0.12896667	0.13311560	0.01894405	-0.11078087	-0.82778830	-0.58395021	-2.31960921	-0.83886807	1.34877682	1.17265782	-2.23326866	0.07577387	1.39425256	0.02337450	-0.15388789	0.29878933	-0.11329752	-5.09098334	-2.06241909	-0.02079606	-0.87006977	0.01584524
739	7.38000000	-0.30115462	0.17442025	-0.15175937	0.11112767	0.01404999	-0.02441391	-0.86481791	-0.68817943	-2.25738893	-0.83020304	1.39597035	1.30713800	-2.67308857	0.22509167	1.32744381	-0.32978507	-0.21734988	0.29210372	-0.07672759	-5.27588694	-2.26588109	0.04600320	-0.77102558	-0.03227537
740	7.39000000	-0.29451877	0.11267833	-0.14139502	0.00954090	-0.01247303	0.06672805	-0.83332419	-0.66839972	-2.14479263	-0.81038183	1.33928664	1.41288847	-2.75569006	0.43510791	1.14179287	-0.30082375	-0.40549440	0.36918246	0.15398460	-4.90741572	-2.55342803	0.03290267	-0.57212694	-0.04505645
741	7.40000000	-0.26574801	0.05042463	-0.14861176	-0.13932096	-0.00025213	0.14119461	-0.64224676	-0.65779858	-2.03872977	-0.75917087	1.18832209	1.50969361	-2.70033295	0.48035090	0.87477965	-0.14964006	-0.46780764	0.42162752	0.22424263	-4.54295736	-2.83921184	0.08586120	-0.40164545	-0.07656501
742	7.41000000	-0.24796694	-0.01572139	-0.15303461	-0.31375260	0.03560154	0.16992636	-0.08629162	-0.79650287	-2.04268515	-0.71561488	1.03788114	1.60692581	-2.49139436	0.25575461	0.72192843	-0.02597289	-0.50592303	0.53243246	0.00116695	-4.39252465	-2.97175516	0.12887019	-0.27538316	-0.10485811
743	7.42000000	-0.25255195	-0.06251900	-0.15050975	-0.46369964	0.07386034	0.17201184	0.41838951	-0.90690575	-2.05565586	-0.69760617	0.93849699	1.66785847	-1.82223995	-0.16985447	0.66924746	0.07623226	-0.48818055	0.68222368	-0.40841686	-4.18297249	-3.12381179	0.16638518	-0.18547989	-0.14066936
744	7.43000000	-0.27185339	-0.09994236	-0.14276909	-0.57807875	0.11718397	0.15766901	0.68179272	-0.93310932	-1.99861052	-0.64422222	0.81469391	1.70132869	-0.92611634	-0.52140779	0.65430475	0.11713873	-0.45643637	0.82640506	-0.80405466	-3.57978831	-3.10088671	0.19813523	-0.12526829	-0.15590622
745	7.44000000	-0.29680270	-0.11676532	-0.16007470	-0.63956327	0.14481195	0.12582442	0.95572770	-0.94244446	-1.74870243	-0.55320227	0.68730373	1.71652044	-0.02320099	-0.73483423	0.62993470	0.05579665	-0.42761533	1.00106546	-0.90172295	-2.72013895	-2.91196949	0.19923830	-0.11920909	-0.14108748
746	7.45000000	-0.32737360	-0.12046360	-0.17725833	-0.64372554	0.15771064	0.09474500	0.97112754	-0.92340589	-1.31628464	-0.43096626	0.58542608	1.72123433	0.97095611	-0.81217121	0.54958827	-0.06577961	-0.40702299	1.13667421	-1.30895520	-1.96295051	-2.64698323	0.20696263	-0.09852168	-0.13163300
747	7.46000000	-0.34130145	-0.11668695	-0.20383610	-0.61482063	0.15658658	0.07395858	0.41813495	-0.74613095	-0.90651782	-0.29122925	0.52820640	1.73103449	1.79849191	-0.79508039	0.50192522	-0.21777786	-0.34232429	1.24624439	-1.36181285	-0.48111784	-1.90676885	0.22335907	-0.06038827	-0.11346283
748	7.47000000	-0.34011163	-0.10746451	-0.23788787	-0.54946663	0.12961964	0.07505329	-0.13687444	-0.61193527	-0.65668654	-0.12293222	0.49356059	1.68802579	2.25870930	-0.77612447	0.54107121	-0.34699056	-0.35032146	1.23684430	-1.59297454	0.96733067	-1.20208165	0.22763723	-0.05424072	-0.09936337
749	7.48000000	-0.33216119	-0.10870202	-0.26060464	-0.45656858	0.10418119	0.11071396	-0.89001577	-0.82485051	-0.38008499	0.00798536	0.42494497	1.57360665	2.32377600	-0.67806415	0.61120107	-0.37410590	-0.31339770	1.27732182	-1.33810784	1.51718796	-0.64851836	0.23382166	-0.04274620	-0.09213062
750	7.49000000	-0.33235135	-0.10354504	-0.27306607	-0.37404006	0.09649554	0.16086845	-1.69599510	-1.20746751	-0.00637554	0.08461680	0.38116066	1.45981061	2.08814393	-0.44256426	0.61824946	-0.38606258	-0.31265295	1.20723996	-0.29731904	1.49688137	-0.20180817	0.24907605	-0.02844395	-0.10992724
751	7.50000000	-0.33627013	-0.10045729	-0.27729501	-0.28443114	0.11071088	0.23349700	-1.94054100	-1.31542968	0.38390031	0.08631799	0.37449430	1.40779089	1.54990655	-0.18093568	0.57851123	-0.28067431	-0.30584054	1.12396576	0.13779263	1.36372101	0.19708015	0.23821909	-0.04775321	-0.09199400
752	7.51000000	-0.32191368	-0.11152789	-0.27197628	-0.18504219	0.14505418	0.30627275	-1.92195973	-1.05204919	0.76628293	0.06238905	0.33677022	1.37737219	0.74532812	-0.00791193	0.51601216	-0.14732369	-0.23987177	1.07312051	-0.03894094	1.39766870	0.66279343	0.22388120	-0.04281136	-0.08327717
753	7.52000000	-0.30150546	-0.11413118	-0.26293519	-0.09828110	0.18349924	0.37923016	-1.91263477	-0.73079415	1.13943898	0.06188990	0.27405741	1.30722557	-0.05565544	0.00794759	0.43206220	0.04742085	-0.20548562	0.97117457	-0.47749090	1.55954075	1.11593771	0.19820426	-0.04610862	-0.06355347
754	7.53000000	-0.29303782	-0.10983579	-0.25290678	-0.02899091	0.21749698	0.45452931	-1.55619065	-0.52307328	1.46718617	0.07869611	0.20786706	1.20592118	-0.64210472	-0.01927143	0.35728292	0.26828763	-0.17941048	0.89650129	-0.93575371	1.75609117	1.42239678	0.15119519	-0.06099118	-0.03852429
755	7.54000000	-0.26857169	-0.10181588	-0.25346398	0.01503157	0.23959942	0.51015791	-0.89926691	-0.41436360	1.73702548	0.07955001	0.15572957	1.11800775	-0.93539035	0.00843208	0.32220052	0.41431728	-0.16109838	0.84699834	-1.17800154	1.96746795	1.56518156	0.09964907	-0.08026255	-0.00968365
756	7.55000000	-0.22498629	-0.10359376	-0.24899407	0.04777273	0.24547354	0.55627898	-0.33162838	-0.39034810	2.01114070	0.08789604	0.13614645	1.03738644	-0.83773782	0.00903621	0.32679719	0.52003018	-0.16068709	0.80287451	-1.23731530	2.19817132	1.61800721	0.07326414	-0.08493655	0.00418255
757	7.56000000	-0.18287960	-0.12313072	-0.24057303	0.07869530	0.25645615	0.57301864	0.00792243	-0.41493454	2.32137984	0.10457700	0.14341113	0.96346916	-0.42226443	-0.07039992	0.39793950	0.54761813	-0.14231658	0.80690552	-1.19657883	2.48068828	1.63747981	0.03348554	-0.09022076	0.03295839
758	7.57000000	-0.13687009	-0.15048231	-0.21942957	0.09532075	0.26772356	0.55993147	0.33240702	-0.38713034	2.64069113	0.12317113	0.16217301	0.89895549	0.06841797	-0.14413833	0.50300156	0.54502210	-0.05482814	0.75484089	-1.13242146	2.78836474	1.66519050	-0.01018954	-0.09795615	0.06528697
759	7.58000000	-0.10075041	-0.18079485	-0.20748870	0.10199833	0.26861334	0.52020272	0.60096872	-0.29377570	2.89524249	0.14899628	0.16800635	0.84111403	0.56385377	-0.14922481	0.58177325	0.55498441	-0.01174813	0.70469560	-1.12266708	3.03081209	1.73144938	-0.06486393	-0.12712248	0.11041111
760	7.59000000	-0.06841370	-0.20639455	-0.18942719	0.08506082	0.27140259	0.47334359	0.79980389	-0.20021130	3.12134680	0.16077483	0.16926960	0.79521191	0.97516715	-0.15133931	0.63917245	0.58726028	-0.00157727	0.67447294	-1.15428843	3.20161491	1.85863195	-0.15971857	-0.16402224	0.15972389
761	7.60000000	-0.04960844	-0.22493011	-0.15735682	0.06961331	0.25739861	0.40948498	0.98135298	-0.06298894	3.35643254	0.18006832	0.16623523	0.74918395	1.05461679	-0.12255298	0.67062362	0.63399262	0.00308128	0.64999683	-1.17328614	3.34549551	2.04383489	-0.22665704	-0.16989078	0.19147759
762	7.61000000	-0.03086404	-0.23712281	-0.12480538	0.03701313	0.23927889	0.35042555	1.08209774	0.11642943	3.59305692	0.18509022	0.15401051	0.70035305	0.87070812	-0.05099750	0.69180587	0.68106932	0.01125967	0.62780798	-1.14159152	3.44528613	2.26147838	-0.30872219	-0.17512293	0.23330025
763	7.62000000	-0.01950514	-0.24505386	-0.09558881	0.00657608	0.22749880	0.29581895	1.17701635	0.31643635	3.78926168	0.16897142	0.13120504	0.65345307	0.58756417	-0.01481346	0.66009703	0.67849682	-0.02196641	0.60848147	-1.00865232	3.51090741	2.49726696	-0.40675868	-0.14840516	0.26474512
764	7.63000000	0.00073554	-0.25208585	-0.07681588	-0.05063445	0.22129344	0.23254687	1.23377303	0.55761846	3.91230946	0.12304888	0.09118760	0.60431537	0.29420684	-0.02752017	0.61216005	0.60960390	-0.03236664	0.64554303	-0.87197687	3.51601912	2.71610519	-0.50250653	-0.12664629	0.28706227
765	7.64000000	0.01300301	-0.26179495	-0.06465246	-0.11106179	0.22295360	0.18690526	1.32924170	0.81847717	3.99230597	0.10628211	0.04967157	0.53438442	-0.00183205	-0.02286645	0.58022048	0.49117658	-0.03961027	0.70676223	-0.85748629	3.47345420	2.85062800	-0.54625388	-0.09184013	0.26686834
766	7.65000000	0.02351974	-0.26713032	-0.04940805	-0.15866111	0.22232238	0.14071028	1.37771405	1.04839071	4.02829773	0.11210658	-0.01385470	0.44929229	-0.16840839	0.01631550	0.57125379	0.31504155	-0.06150959	0.74947276	-0.94985165	3.37953977	2.88958087	-0.60326741	-0.04500577	0.27320453
767	7.66000000	0.03941596	-0.26665490	-0.03183767	-0.18062107	0.23479835	0.10391248	1.27809634	1.26760717	4.06723770	0.12997588	-0.09607431	0.39494946	-0.28906101	0.02624065	0.56214373	0.13537545	-0.09941409	0.76962752	-1.03635940	3.27307466	2.80936313	-0.69742121	-0.01448993	0.31514400
